<svg xmlns="http://www.w3.org/2000/svg" viewBox="0 0 66.85 9.37"><title>your-next</title><path d="M1.75,10.83A1.35,1.35,0,0,1,.49,9.74V9.61l.11-.32q.06-.2.13-.39A.88.88,0,0,1,1,8.55q0-.11.13-.32t.33-.65L1.74,7l.18-.3a1.72,1.72,0,0,0-.33-.41Q1.41,6,1.27,5.65a4.8,4.8,0,0,1-.21-.58A2.51,2.51,0,0,0,1,4.5L.9,4.2a1.4,1.4,0,0,1,0-.32.91.91,0,0,1-.08-.21l0-.14a.35.35,0,0,0,0-.25Q.81,3.12.76,3T.7,2.63a1.38,1.38,0,0,1,0-.33A.83.83,0,0,1,.77,2,.62.62,0,0,1,1,1.72l.12-.08.12.07.25.14L1.75,2,2,2.12l.3.17.12.08V2.5a.19.19,0,0,0,0,.06.15.15,0,0,0,0,.06l.13,0V3a.61.61,0,0,0,0,.15.28.28,0,0,0,0,.09l.06.15a1.8,1.8,0,0,0,0,.38q0,.16.08.33A2.49,2.49,0,0,1,3,4.38a1.15,1.15,0,0,1,0,.37.55.55,0,0,0,.14-.11l.05,0,.06,0L4,3.43l0-.14L4.31,3l.22-.19a.91.91,0,0,0,.18-.23l.07-.11a2.18,2.18,0,0,1,1.36-.87l.2,0,.06.19A.61.61,0,0,0,6.63,2L7,2.29l.13.08a.54.54,0,0,1,.07.21.49.49,0,0,1,0,.12l.06.15A1.34,1.34,0,0,1,7,3.33l-.32.28-.23.21a.8.8,0,0,0-.16.23l-.09.12a.7.7,0,0,0-.37.45l0,.16H5.55l-.06.05a1.28,1.28,0,0,0-.14.25l-.15.18-.06.06,0,.11,0,.12L5,5.65a.68.68,0,0,0-.15.18L4.73,6l-.11.22a.91.91,0,0,1-.16.22l0,.13-.09.08a.79.79,0,0,0-.16.21l-.14.25-.15.28a1.09,1.09,0,0,1-.21.26A2.87,2.87,0,0,1,3.58,8a1.52,1.52,0,0,1-.22.28A3.2,3.2,0,0,1,2.7,9.49a.67.67,0,0,1-.08.25L2.48,10l-.05.1,0,.08,0,.13a1,1,0,0,1-.15.21l-.15.15L2,10.7l-.05.06Z" transform="translate(-0.49 -1.5)"/><path d="M8.38,10.49a2.25,2.25,0,0,1-1.69-.41,2.55,2.55,0,0,1-.57-.59,3.44,3.44,0,0,1-.39-.73,3.84,3.84,0,0,1,.06-1.45,4.71,4.71,0,0,1,.48-1.2,7.06,7.06,0,0,1,.72-1l.78-.93a.14.14,0,0,0,.13,0A.36.36,0,0,0,8,4.07l.09-.12a.29.29,0,0,1,.12-.08.53.53,0,0,1,.12-.18l.16-.13.16-.13a.7.7,0,0,0,.13-.18A.57.57,0,0,0,9,3.16L9.16,3l.16-.13a.67.67,0,0,1,.2-.09V2.66a1,1,0,0,0,.38-.26L10.17,2h.21l.24,0a1.25,1.25,0,0,1,.2-.29,1.8,1.8,0,0,1,.27-.21,1,1,0,0,0,.38.11.58.58,0,0,1,.36.18.35.35,0,0,0,.08.22l.15.14.16.13a.33.33,0,0,1,.11.2.09.09,0,0,0,.08,0s0,0,.08,0a1.22,1.22,0,0,0,0,.15l.05.11.06.11a.82.82,0,0,1,.05.14,3,3,0,0,0-.11.3.32.32,0,0,1-.19.22q0,.09.07.1s.07,0,.08.09a.26.26,0,0,1,0,.18A11.08,11.08,0,0,1,13.11,5a9.82,9.82,0,0,0,.61,1.15.81.81,0,0,0,0,.32,2.24,2.24,0,0,0,.11.31l.12.3a1.47,1.47,0,0,1,.08.3,2,2,0,0,1,0,.43,2,2,0,0,1-.09.44,1.73,1.73,0,0,1-.19.39.87.87,0,0,1-.27.28A1.45,1.45,0,0,1,13,9.3a2.77,2.77,0,0,0-.52.35,1.24,1.24,0,0,1-.35.13l-.39.09a2.62,2.62,0,0,1-.36.18l-.43.16-.45.11a1.28,1.28,0,0,1-.4,0,4.23,4.23,0,0,1-.82.21A2.65,2.65,0,0,1,8.38,10.49Zm.15-4.27a2.54,2.54,0,0,1-.28.49l-.31.44a3,3,0,0,0-.26.47,1.59,1.59,0,0,0-.12.59,1,1,0,0,0,.56.24,3.11,3.11,0,0,0,.66,0l.68-.09a3.62,3.62,0,0,1,.61-.06q0-.11.09-.11a2.37,2.37,0,0,0,.91-.28L12,7.48a.87.87,0,0,1,.15-.25.49.49,0,0,0,.11-.3.77.77,0,0,1-.08-.18.94.94,0,0,1,0-.21,5.17,5.17,0,0,1-.53-.92,6.65,6.65,0,0,0-.52-.94.31.31,0,0,1-.09.12s-.1,0-.15,0a.26.26,0,0,1-.11.16.31.31,0,0,1-.16,0,.47.47,0,0,1-.18,0,.58.58,0,0,1-.16-.09l-.81.63a4.09,4.09,0,0,0-.73.71s-.06,0-.07,0Z" transform="translate(-0.49 -1.5)"/><path d="M15.09,4.64A.39.39,0,0,0,15,4.45,2.5,2.5,0,0,0,15.16,4q0-.21.06-.39t.05-.3a2,2,0,0,1,.08-.27.52.52,0,0,0,.3-.17l.16-.22a.36.36,0,0,1,.28.06,1.07,1.07,0,0,1,.15.23,1.64,1.64,0,0,0,.16.28.68.68,0,0,0,.32.23,2.27,2.27,0,0,0,.08.25L16.9,4q.11.25.2.51a1.75,1.75,0,0,1,.11.5A2.47,2.47,0,0,0,17,5.6a4.35,4.35,0,0,0-.09.71,4.4,4.4,0,0,0,0,.69,2.33,2.33,0,0,0,.12.55l.07.19.26,0a6.06,6.06,0,0,0,.76-.24,3.7,3.7,0,0,0,.63-.32,4.45,4.45,0,0,0,.56-.43,7.07,7.07,0,0,0,.56-.57,4.14,4.14,0,0,0,.5-.74,5.39,5.39,0,0,0,.37-.86A6.78,6.78,0,0,0,21,3.66a6.92,6.92,0,0,0,.11-.83.4.4,0,0,0,.25-.34l0-.15a.18.18,0,0,1,0-.11.29.29,0,0,1,0-.1.67.67,0,0,1,.4-.4,3.39,3.39,0,0,1,.39.3l.33.33a2.5,2.5,0,0,0,.09.54q.07.23.15.44t.15.39a1.94,1.94,0,0,1,.09.46,4.47,4.47,0,0,0-.17.66q-.05.31-.1.65l0,.13-.42.74q-.21.38-.33.66a.75.75,0,0,0-.12.16l-.1.19-.06.12a.47.47,0,0,1-.08.12l-.28-.11-.07.36-.19,0-.14.16a4.16,4.16,0,0,1-.57.79,3.86,3.86,0,0,1-.67.56,6.37,6.37,0,0,1-.83.46l-1.06.46-.4,0-.33,0h-.32l-.35,0a.32.32,0,0,0-.13-.15.31.31,0,0,0-.15,0,.8.8,0,0,1-.35-.33l-.25-.47L15.28,9a1.57,1.57,0,0,0-.16-.27l.23-.07L15,8.29,15,8.21l-.08-.08V7.91q0-1,0-1.78a4.56,4.56,0,0,1,.22-1.44Z" transform="translate(-0.49 -1.5)"/><path d="M22.92,9.43s-.07,0-.11-.09l-.11-.19h.13a1,1,0,0,1,0-.47q0-.22.1-.42t.1-.4a.7.7,0,0,0,0-.4s.07,0,.09,0a.69.69,0,0,0,0-.16.93.93,0,0,0,0-.21,1.68,1.68,0,0,0,0-.18,4.53,4.53,0,0,0,.24-.75q.09-.39.16-.77t.16-.74a4,4,0,0,1,.23-.67.72.72,0,0,1,.35,0,.45.45,0,0,1,.24.16,3.15,3.15,0,0,0,.64-.68l.57-.78A3.8,3.8,0,0,1,26.32,2a1.69,1.69,0,0,1,.9-.35l.63.43a1.94,1.94,0,0,1,.57.57l.18.12.18.12v.18a1.39,1.39,0,0,1,.28.36,3.67,3.67,0,0,1,.2.43l.17.46a3.15,3.15,0,0,0,.19.43.29.29,0,0,0,0,.12.51.51,0,0,0,0,.11.86.86,0,0,1,0,.12.9.9,0,0,1,0,.16,1.59,1.59,0,0,1-.4,1,2.83,2.83,0,0,1-.87.62,7.59,7.59,0,0,1-1.08.41,9.74,9.74,0,0,0-1,.37s0,0,.05,0,0,0,0,.07l.54.34.36.22a2,2,0,0,0,.38.15l.57.14.57.13.37.08.35.05L30,9a1.06,1.06,0,0,1,.21.3,1.55,1.55,0,0,1,.12.35,1.09,1.09,0,0,1,0,.33.45.45,0,0,1-.1.25.05.05,0,0,0,.06,0h.11a.6.6,0,0,0-.14.14l-.12.16a1,1,0,0,1-.13.15.32.32,0,0,1-.19.08,1.84,1.84,0,0,1-1.08,0,13.67,13.67,0,0,1-1.68-.54q-.5-.19-.82-.34a5.76,5.76,0,0,1-.55-.3,3.64,3.64,0,0,1-.43-.32l-.46-.4a.06.06,0,0,0,0,0,.06.06,0,0,1,0,0,3,3,0,0,1-.18.76,2.71,2.71,0,0,1-.36.6q-.19,0-.25,0a.76.76,0,0,1-.16.13.28.28,0,0,1-.18,0l-.11-.06-.11-.07a.32.32,0,0,0-.19,0l-.07-.21q0-.1-.19-.09a.39.39,0,0,0,0-.18.74.74,0,0,0,0-.14l0-.13A.28.28,0,0,1,22.92,9.43Zm3.91-5.36a2.62,2.62,0,0,1-.34.4l-.37.38a2.62,2.62,0,0,0-.32.42,1.58,1.58,0,0,0-.2.54,4.06,4.06,0,0,0,1-.28l1-.42a1.23,1.23,0,0,0-.3-.7A1.3,1.3,0,0,0,26.84,4.08Z" transform="translate(-0.49 -1.5)"/><path d="M36.91,9.34a.37.37,0,0,0-.14.24q0,.15-.06.29a.56.56,0,0,1-.12.24.37.37,0,0,1-.31.09s0,.06,0,.07,0,0,.05.11a.35.35,0,0,0-.23,0,.52.52,0,0,1-.18.07.93.93,0,0,1-.45-.3,2.64,2.64,0,0,1-.32-.47,4.52,4.52,0,0,1-.23-.53,3.89,3.89,0,0,0-.21-.47s0,0,0,0h.08a1,1,0,0,1-.09-.26.51.51,0,0,0-.11-.24q.34-.73.73-1.52L36.12,5l.79-1.64q.39-.83.76-1.62A5.43,5.43,0,0,1,38.3,2a3.16,3.16,0,0,1,.57.37,2.17,2.17,0,0,1,.44.49,1.6,1.6,0,0,1,.24.63s0,.06-.06,0,0,0-.06,0a.3.3,0,0,1,.06.1.1.1,0,0,1,0,.06.21.21,0,0,0,0,.08.25.25,0,0,0,.06.13.08.08,0,0,0-.08,0s0,0-.08,0a.47.47,0,0,1,0,.26.6.6,0,0,1-.07.17.79.79,0,0,0-.08.16.41.41,0,0,0,0,.24l-.06,0,0,0,0,0s0,0-.06,0a4,4,0,0,1,0,.62l0,.63q0,.32,0,.66a3.78,3.78,0,0,0,.09.7A2.42,2.42,0,0,0,40,6.77a4.13,4.13,0,0,0,.49-1,8.12,8.12,0,0,0,.28-1.23L41,3.16a.94.94,0,0,0,.21-.32,3.21,3.21,0,0,0,.13-.39l.11-.4a1.49,1.49,0,0,1,.15-.37.78.78,0,0,1,.36.12A2.15,2.15,0,0,1,42.2,2l.27.23a.79.79,0,0,0,.35.14l.3.45a1.29,1.29,0,0,1,.19.49.94.94,0,0,0-.11.26l-.08.28a1.09,1.09,0,0,1-.11.26.61.61,0,0,1-.2.2,5.24,5.24,0,0,1-.11.66q-.07.3-.13.6t-.11.61a3.9,3.9,0,0,0,0,.69q-.11.34-.23.7a4.44,4.44,0,0,0-.19.66,1.27,1.27,0,0,0-.35.43l-.27.52s-.06,0-.07,0,0,0-.11,0,0,.12,0,.13,0,.08,0,.17a1.24,1.24,0,0,0-.35.25,2.59,2.59,0,0,1-.33.28,1,1,0,0,1-.42.17,1.28,1.28,0,0,1-.63-.1,5.79,5.79,0,0,1-1-1,4.28,4.28,0,0,1-.73-1.3.28.28,0,0,0-.18.15,2.33,2.33,0,0,0-.11.25l-.09.23a.15.15,0,0,1-.14.11.51.51,0,0,1-.09.19L37,8.91a.67.67,0,0,0-.09.19A.34.34,0,0,0,36.91,9.34Z" transform="translate(-0.49 -1.5)"/><path d="M43.66,10a.54.54,0,0,1-.13-.22.37.37,0,0,0-.19-.21q0-.18-.06-.4l-.08-.47q0-.24-.06-.48a1.78,1.78,0,0,1,0-.44.72.72,0,0,1,.08-.2l.11-.18a.84.84,0,0,0,.08-.18.34.34,0,0,0,0-.19A.1.1,0,0,0,43.51,7s0-.06.11,0q.08-.26.18-.48T44,6l.22-.43a3.8,3.8,0,0,0,.21-.49,1.15,1.15,0,0,1-.29-.4A2.59,2.59,0,0,1,44,4.28a4.34,4.34,0,0,1-.07-.45,2.5,2.5,0,0,0-.09-.46A1.25,1.25,0,0,1,44.17,3a2,2,0,0,1,.44-.22,3.27,3.27,0,0,1,.52-.14l.6-.12q.56-.18,1-.28t.87-.16L48.48,2q.46-.05,1.05-.16s0,0,0,0h.08a.13.13,0,0,0,.13.08.33.33,0,0,0,0-.06.27.27,0,0,1,0-.05h.06l.07,0H50s0,0,0-.08a1.25,1.25,0,0,0,.36.4,2.72,2.72,0,0,0,.49.28.73.73,0,0,1,0,.15.58.58,0,0,1,0,.09.34.34,0,0,0,0,.09.65.65,0,0,0,0,.15,1.62,1.62,0,0,1-.43.49,1.94,1.94,0,0,1-.51.27,3.27,3.27,0,0,1-.57.14l-.61.1a5.37,5.37,0,0,0-.63.15,2.59,2.59,0,0,0-.62.28.4.4,0,0,0-.17,0l-.16,0-.18,0a.62.62,0,0,1-.24,0,.56.56,0,0,1-.22.12l-.25.07a.56.56,0,0,1,.05.26.56.56,0,0,0,0,.22,6,6,0,0,0,1.09,0L48.59,5a.09.09,0,0,1,0,.08.11.11,0,0,0,0,.08,1,1,0,0,1,.2.18l.19.21a1.11,1.11,0,0,0,.21.16.4.4,0,0,0,.25.05.91.91,0,0,1,.08.25.47.47,0,0,1,0,.27L49,6.58a4.35,4.35,0,0,1-.46.29,2.7,2.7,0,0,1-.52.21,1.92,1.92,0,0,1-.61.07h-.1a.17.17,0,0,1-.1,0,.58.58,0,0,1-.31,0,.64.64,0,0,0-.32,0,1.13,1.13,0,0,0-.38-.06,1.13,1.13,0,0,1-.38-.06q-.21.3-.4.64a5.11,5.11,0,0,0-.33.71,4.53,4.53,0,0,0,.8.06l.6,0L47,8.36a5.21,5.21,0,0,1,.73,0,2.27,2.27,0,0,1,.67-.19A4.2,4.2,0,0,0,49.16,8a.4.4,0,0,1,.2.13l.16.2a1.11,1.11,0,0,0,.16.17.24.24,0,0,0,.21,0,.28.28,0,0,1,.08.14l0,.15a.27.27,0,0,0,.05.11.14.14,0,0,0,.13,0,2.26,2.26,0,0,1-.5.7,2,2,0,0,1-.62.38,3.61,3.61,0,0,1-.77.2l-1,.16a.44.44,0,0,1-.22,0,.57.57,0,0,0-.18,0l-.78.12a5.87,5.87,0,0,1-.91,0,4,4,0,0,1-.88-.12A1.53,1.53,0,0,1,43.66,10Z" transform="translate(-0.49 -1.5)"/><path d="M51.14,10.84a2.05,2.05,0,0,1-.67-.84,1.34,1.34,0,0,1-.05-1,1.9,1.9,0,0,1,.18-.7A3.71,3.71,0,0,1,51,7.68a5.35,5.35,0,0,1,.5-.57l.5-.5a.57.57,0,0,1,.16-.25l.25-.21.27-.22a1,1,0,0,0,.22-.27,1.24,1.24,0,0,0-.15-.33q-.11-.16-.23-.33l-.27-.33A3.54,3.54,0,0,1,52,4.34s0-.05-.09,0a.11.11,0,0,1-.11,0,.74.74,0,0,0-.08-.4,1.16,1.16,0,0,0-.26-.37,2.41,2.41,0,0,0,.11-.36.89.89,0,0,0,0-.48.48.48,0,0,1,0-.22l.09-.2a1,1,0,0,0,.07-.18.29.29,0,0,0,0-.18.8.8,0,0,1,.32,0l.27.09.23.09a.3.3,0,0,0,.22,0,.13.13,0,0,0,0,.1l0,0,.06,0s0,0,0,.06a1.4,1.4,0,0,1,.49.3,5.79,5.79,0,0,1,.51.52q.25.28.45.56t.29.43q.34-.21.73-.5l.81-.6q.42-.3.84-.58A5,5,0,0,1,57.82,2a1,1,0,0,1,.37.27,1.73,1.73,0,0,1,.22.35l.16.36a1.11,1.11,0,0,0,.21.32,2.13,2.13,0,0,1-.25.39,1,1,0,0,0-.19.38,4.56,4.56,0,0,0-.7.38q-.35.22-.89.61t-1.28,1a3,3,0,0,1,.29.38l.18.3a2.15,2.15,0,0,1,.13.28.82.82,0,0,1,.21.22l.16.26a1.9,1.9,0,0,0,.17.25.67.67,0,0,0,.25.19,2.72,2.72,0,0,0,.12.39l.13.36a3.16,3.16,0,0,1,.11.35,1.14,1.14,0,0,1,0,.35,1.36,1.36,0,0,1-.28.53,1.37,1.37,0,0,0-.27.43l-.25.08a.51.51,0,0,0-.21.12l-.8-.56a5.63,5.63,0,0,0-.61-1.35,11.31,11.31,0,0,0-.77-1.11A10.32,10.32,0,0,0,53,8.5,9.18,9.18,0,0,0,52,9.62a3.2,3.2,0,0,1-.07.49.8.8,0,0,1-.15.32,1,1,0,0,1-.27.22A3,3,0,0,1,51.14,10.84Z" transform="translate(-0.49 -1.5)"/><path d="M58.27,3.83a.72.72,0,0,0,0-.17l-.06-.17a2.77,2.77,0,0,1-.11-.3,1.42,1.42,0,0,1,0-.39.49.49,0,0,1,.06-.17l.07-.09,0-.21h.56q.45,0,.91,0l1-.08q.54-.07,1.16-.11L61.86,2l0-.08L62,1.8a.62.62,0,0,1,.38.06.9.9,0,0,1,.16.15L63.19,2l.66-.09.95-.12a7.74,7.74,0,0,1,.94-.06h.38l.34,0,.14.11A.72.72,0,0,0,66.7,2l.16.14a2.27,2.27,0,0,1,.35.35.82.82,0,0,1,.12.62l-.06.12-.12.09L67,3.47h-.13l-.18,0-.14.05-.11,0-.13,0H66a6.74,6.74,0,0,0-.76,0l-.8.11-.54.06-.47.05-.21.54-.2.47q-.11.23-.2.47t-.18.53a3.44,3.44,0,0,0-.23.4,2.14,2.14,0,0,0-.15.44,1.22,1.22,0,0,0-.25.43l-.13.4,0,.18a.43.43,0,0,0-.1.13.4.4,0,0,1-.06.11,1.83,1.83,0,0,1-.09.29l0,.12a.16.16,0,0,0,0,.1.53.53,0,0,1-.07.2.85.85,0,0,1,0,.14l0,.14q0,.08,0,.15a.22.22,0,0,0,0,.12l.07.09a.41.41,0,0,1,.06.12l.06,0,.06,0a.35.35,0,0,0,.18.09l.12.14a.77.77,0,0,1-.13.66.84.84,0,0,1-.7.27h-.16l-.09-.11-.18-.08a.31.31,0,0,1-.13-.11l-.06,0-.06,0a.71.71,0,0,1-.19-.08l-.13-.07q0-.12,0-.16A1.07,1.07,0,0,1,60,9.73a2.69,2.69,0,0,1-.09-.32l-.06-.23A.59.59,0,0,0,59.72,9a4.22,4.22,0,0,1,.15-1.38q.18-.56.39-1.08.12-.28.22-.57t.19-.6l.13-.13.11-.08a.8.8,0,0,1,.06-.3l.13-.3.09-.19a.71.71,0,0,0,.05-.16h-.15l-.13,0a1.3,1.3,0,0,1-.29,0H60.5a.47.47,0,0,1-.18.05h-.45a.58.58,0,0,0-.22,0h-.6l-.21,0a.75.75,0,0,1-.25-.09l-.08-.09Q58.45,4,58.39,4l-.13,0Z" transform="translate(-0.49 -1.5)"/></svg>